<svg width="22" height="22" viewBox="0 0 22 22" fill="none" xmlns="http://www.w3.org/2000/svg">
<path d="M11.245 0.960258C17.0002 0.960258 21.7398 5.69985 21.7398 11.4551C21.7398 17.2526 17.0002 21.9499 11.245 21.9499C5.44744 21.9499 0.750165 17.2526 0.750165 11.4551C0.750165 5.69985 5.44744 0.960258 11.245 0.960258ZM18.1428 5.8268C17.9735 6.08071 16.4924 7.98501 13.1493 9.33918C13.4878 10.0163 13.6994 10.5241 13.9533 11.1165C16.9156 10.7357 19.8778 11.3281 20.174 11.4127C20.174 9.29686 19.4123 7.35024 18.1428 5.8268ZM17.1695 4.76886C14.9689 2.82224 11.9644 2.10284 9.12908 2.77992C9.38299 3.11846 10.9911 5.31899 12.4722 8.02733C15.646 6.84243 17.0002 5.02276 17.1695 4.76886ZM7.39406 3.37237C4.89731 4.55727 3.03532 6.88475 2.44288 9.6354C2.86605 9.67772 6.5477 9.67772 10.7372 8.57746C9.25604 5.91144 7.64796 3.71091 7.39406 3.37237ZM2.27361 11.4974C2.27361 13.7825 3.11996 15.8984 4.55876 17.4642C5.99757 15.0098 8.95981 12.3861 12.2183 11.4551C11.9644 10.9473 11.7528 10.4394 11.4566 9.93163C7.0132 11.2858 2.65447 11.2435 2.27361 11.2012C2.27361 11.3281 2.27361 11.4127 2.27361 11.4974ZM5.70134 18.5645C8.36736 20.638 11.8374 20.9766 14.715 19.7493C14.5881 18.9453 14.0803 16.1947 12.8107 12.9362C9.21372 14.1634 6.67465 16.6602 5.70134 18.5645ZM16.2385 18.903C18.2274 17.5488 19.6662 15.3906 20.0894 12.8939C19.7508 12.8092 17.2964 12.0898 14.5034 12.513C15.646 15.7715 16.1538 18.3952 16.2385 18.903Z" fill="white" fill-opacity="0.5"/>
</svg>
