<svg width="20" height="20" viewBox="0 0 20 20" fill="none" xmlns="http://www.w3.org/2000/svg">
<path d="M10.035 5.58852C12.701 5.58852 14.9015 7.78905 14.9015 10.4551C14.9015 13.1634 12.701 15.3216 10.035 15.3216C7.32665 15.3216 5.16844 13.1634 5.16844 10.4551C5.16844 7.78905 7.32665 5.58852 10.035 5.58852ZM10.035 13.6289C11.77 13.6289 13.1665 12.2324 13.1665 10.4551C13.1665 8.72004 11.77 7.32355 10.035 7.32355C8.25764 7.32355 6.86115 8.72004 6.86115 10.4551C6.86115 12.2324 8.29996 13.6289 10.035 13.6289ZM16.2134 5.41925C16.2134 6.05402 15.7056 6.56183 15.0708 6.56183C14.436 6.56183 13.9282 6.05402 13.9282 5.41925C13.9282 4.78448 14.436 4.27667 15.0708 4.27667C15.7056 4.27667 16.2134 4.78448 16.2134 5.41925ZM19.4295 6.56183C19.5142 8.12759 19.5142 12.8249 19.4295 14.3906C19.3449 15.9141 19.0064 17.2259 17.9061 18.3685C16.8058 19.4688 15.4517 19.8073 13.9282 19.8919C12.3625 19.9766 7.66519 19.9766 6.09943 19.8919C4.57599 19.8073 3.26414 19.4688 2.12156 18.3685C1.0213 17.2259 0.682759 15.9141 0.598124 14.3906C0.513488 12.8249 0.513488 8.12759 0.598124 6.56183C0.682759 5.03839 1.0213 3.68422 2.12156 2.58396C3.26414 1.4837 4.57599 1.14516 6.09943 1.06052C7.66519 0.975884 12.3625 0.975884 13.9282 1.06052C15.4517 1.14516 16.8058 1.4837 17.9061 2.58396C19.0064 3.68422 19.3449 5.03839 19.4295 6.56183ZM17.3983 16.041C17.9061 14.8138 17.7791 11.8516 17.7791 10.4551C17.7791 9.1009 17.9061 6.13865 17.3983 4.86912C17.0597 4.06508 16.425 3.388 15.6209 3.09177C14.3514 2.58396 11.3892 2.71091 10.035 2.71091C8.6385 2.71091 5.67626 2.58396 4.44904 3.09177C3.60269 3.43031 2.96792 4.06508 2.62938 4.86912C2.12156 6.13865 2.24852 9.1009 2.24852 10.4551C2.24852 11.8516 2.12156 14.8138 2.62938 16.041C2.96792 16.8874 3.60269 17.5221 4.44904 17.8607C5.67626 18.3685 8.6385 18.2415 10.035 18.2415C11.3892 18.2415 14.3514 18.3685 15.6209 17.8607C16.425 17.5221 17.1021 16.8874 17.3983 16.041Z" fill="white" fill-opacity="0.5"/>
</svg>
