<svg width="103" height="103" viewBox="0 0 103 103" fill="none" xmlns="http://www.w3.org/2000/svg">
<rect x="1.7142" y="51.42" width="70.19" height="70.19" rx="2" transform="rotate(-45 1.7142 51.42)" stroke="black" stroke-opacity="0.125" stroke-width="2"/>
<path d="M58.9369 43.2396C60.1023 42.7598 61.2678 43.9252 60.7879 45.0906L56.2633 54.9625C55.989 55.4424 55.6463 55.7852 55.1664 56.0594L45.2945 60.584C44.1291 61.0639 42.9636 59.8984 43.4435 58.733L47.9681 48.8611C48.2424 48.3812 48.5851 48.0385 49.065 47.7643L58.9369 43.2396ZM53.6582 53.4543C54.5494 52.6316 54.5494 51.192 53.6582 50.3693C52.8355 49.4781 51.3959 49.4781 50.5732 50.3693C49.682 51.192 49.682 52.6316 50.5732 53.4543C51.3959 54.3455 52.8355 54.3455 53.6582 53.4543ZM52.15 34.876C61.4734 34.876 69.1516 42.5541 69.1516 51.8775C69.1516 61.2695 61.4734 68.8791 52.15 68.8791C42.758 68.8791 35.1484 61.2695 35.1484 51.8775C35.1484 42.5541 42.758 34.876 52.15 34.876ZM52.15 65.5885C59.691 65.5885 65.8609 59.4871 65.8609 51.8775C65.8609 44.3365 59.691 38.1666 52.15 38.1666C44.5404 38.1666 38.439 44.3365 38.439 51.8775C38.439 59.4871 44.5404 65.5885 52.15 65.5885Z" fill="#00FFCC"/>
</svg>
