<svg width="23" height="17" viewBox="0 0 23 17" fill="none" xmlns="http://www.w3.org/2000/svg">
<path d="M22.2151 5.70441C22.3844 5.57746 22.6383 5.70441 22.6383 5.916V14.5488C22.6383 15.6914 21.7073 16.5801 20.6071 16.5801H3.00287C1.86029 16.5801 0.971621 15.6914 0.971621 14.5488V5.916C0.971621 5.70441 1.18321 5.57746 1.35248 5.70441C2.32579 6.46613 3.553 7.39712 7.86942 10.5286C8.75809 11.1634 10.2815 12.5599 11.805 12.5599C13.2861 12.5599 14.8519 11.1634 15.6982 10.5286C20.0146 7.39712 21.2418 6.46613 22.2151 5.70441ZM11.805 11.1634C10.7893 11.2057 9.39286 9.93619 8.67346 9.42837C3.04519 5.36587 2.62201 4.98501 1.35248 3.96938C1.09857 3.80011 0.971621 3.50389 0.971621 3.16534V2.36131C0.971621 1.26104 1.86029 0.330053 3.00287 0.330053H20.6071C21.7073 0.330053 22.6383 1.26104 22.6383 2.36131V3.16534C22.6383 3.50389 22.469 3.80011 22.2151 3.96938C20.9456 4.98501 20.5224 5.36587 14.8942 9.42837C14.1748 9.93619 12.7783 11.2057 11.805 11.1634Z" fill="white" fill-opacity="0.5"/>
</svg>
