<svg width="104" height="103" viewBox="0 0 104 103" fill="none" xmlns="http://www.w3.org/2000/svg">
<rect x="2.37421" y="51.42" width="70.19" height="70.19" rx="2" transform="rotate(-45 2.37421 51.42)" stroke="black" stroke-opacity="0.125" stroke-width="2"/>
<path d="M71.4469 36.5213C71.9953 36.5213 72.5438 37.0012 72.5438 37.6867V61.4066C72.5438 62.2979 71.9268 63.1205 71.1041 63.4633L60.7523 67.0281C60.2725 67.1652 59.8611 67.2338 59.3812 67.2338C58.9014 67.2338 58.4215 67.1652 58.0102 67.0281L46.2187 62.8463L34.4959 67.1652C34.3588 67.2338 34.2217 67.2338 34.0845 67.2338C33.5361 67.2338 33.0562 66.8225 33.0562 66.1369V42.417C33.0562 41.5258 33.6047 40.7031 34.4273 40.3603L44.7791 36.7955C45.259 36.6584 45.7389 36.5213 46.1502 36.5213C46.6301 36.5898 47.1099 36.6584 47.5898 36.7955L59.3812 40.9088L71.0356 36.6584C71.1727 36.5898 71.3098 36.5213 71.4469 36.5213ZM48.4125 40.566V60.1727L57.1875 63.2576V43.651L48.4125 40.566ZM36.3469 63.052L45.0533 59.7613H45.1219V40.1547L36.3469 43.2396V63.052ZM69.2531 60.584V40.7717L60.4781 44.0623V63.669L69.2531 60.584Z" fill="#00F0FF"/>
</svg>
