<svg width="103" height="103" viewBox="0 0 103 103" fill="none" xmlns="http://www.w3.org/2000/svg">
<rect x="2.0242" y="51.42" width="70.19" height="70.19" rx="2" transform="rotate(-45 2.0242 51.42)" stroke="black" stroke-opacity="0.125" stroke-width="2"/>
<path d="M63.4337 56.265C66.9986 56.265 70.015 59.2814 70.015 62.8463C70.015 66.4797 66.9986 69.4275 63.4337 69.4275H44.3755C45.2667 68.3307 46.5007 66.7539 47.5976 65.04H63.4337C64.5992 65.04 65.6275 64.0803 65.6275 62.8463C65.6275 61.6809 64.5992 60.6525 63.4337 60.6525H56.8525C53.2191 60.6525 50.2712 57.7047 50.2712 54.0713C50.2712 50.5064 53.2191 47.49 56.8525 47.49H59.9375C58.3607 45.2963 56.8525 42.6912 56.8525 40.9088C56.8525 37.2754 59.8003 34.3275 63.4337 34.3275C67.0671 34.3275 70.015 37.2754 70.015 40.9088C70.015 44.5422 63.4337 51.8775 63.4337 51.8775H56.8525C55.6185 51.8775 54.6587 52.9059 54.6587 54.0713C54.6587 55.3053 55.6185 56.265 56.8525 56.265H63.4337ZM63.4337 38.715C62.1998 38.715 61.24 39.7433 61.24 40.9088C61.24 42.1428 62.1998 43.1025 63.4337 43.1025C64.5992 43.1025 65.6275 42.1428 65.6275 40.9088C65.6275 39.7433 64.5992 38.715 63.4337 38.715ZM41.4962 51.8775C45.1296 51.8775 48.0775 54.8254 48.0775 58.4588C48.0775 62.0922 41.4962 69.4275 41.4962 69.4275C41.4962 69.4275 34.915 62.0922 34.915 58.4588C34.915 54.8254 37.8628 51.8775 41.4962 51.8775ZM41.4962 60.6525C42.6617 60.6525 43.69 59.6928 43.69 58.4588C43.69 57.2934 42.6617 56.265 41.4962 56.265C40.2622 56.265 39.3025 57.2934 39.3025 58.4588C39.3025 59.6928 40.2622 60.6525 41.4962 60.6525Z" fill="#76DDFF"/>
</svg>
